<svg xmlns="http://www.w3.org/2000/svg" viewBox="0 0 920 758" font-family="system-ui,-apple-system,sans-serif">
  <style>
    @media (prefers-color-scheme: dark) {
      .bg { fill: #0f1218; }
      .hdr-bg { fill: #1e293b; }
      .sec-bg { fill: #1a1e28; stroke: #2a3040; stroke-width: 0.5; }
      .hdr-text { fill: #e2e8f0; font-size: 11px; font-weight: 600; }
      .cell { fill: #cbd5e1; font-size: 10.5px; }
      .note { fill: #64748b; font-size: 9.5px; }
      .perf { fill: #86efac; font-size: 10px; font-family: "SF Mono", Menlo, monospace; }
      .title { fill: #f1f5f9; font-size: 18px; font-weight: 700; }
      .subtitle { fill: #64748b; font-size: 11px; }
      .sec-title { fill: #94a3b8; font-size: 11.5px; font-weight: 600; }
      .pass { fill: #22c55e; } .warn { fill: #f59e0b; }
      .skip { fill: #475569; } .na { fill: #334155; }
      .footer-bg { fill: #1e293b; }
      .footer-text { fill: #94a3b8; font-size: 11px; font-weight: 600; }
      .row-cpu   { fill: #0f1218; }
      .row-simd  { fill: #1a1808; }
      .row-gpu   { fill: #0a1a0e; }
      .row-ioctl { fill: #1a0c0c; }
      .row-both  { fill: #140e1e; }
      .legend-cpu  { fill: #334155; stroke: #475569; }
      .legend-simd { fill: #422006; stroke: #a06020; }
      .legend-gpu  { fill: #052e16; stroke: #16a34a; }
      .legend-ioctl { fill: #2a0a0a; stroke: #a03030; }
      .legend-both { fill: #1e0a3a; stroke: #7c3aed; }
    }
    @media (prefers-color-scheme: light) {
      .bg { fill: #f8fafc; }
      .hdr-bg { fill: #334155; }
      .sec-bg { fill: #e2e8f0; stroke: #cbd5e1; stroke-width: 0.5; }
      .hdr-text { fill: #ffffff; font-size: 11px; font-weight: 600; }
      .cell { fill: #1e293b; font-size: 10.5px; }
      .note { fill: #64748b; font-size: 9.5px; }
      .perf { fill: #15803d; font-size: 10px; font-family: "SF Mono", Menlo, monospace; }
      .title { fill: #0f172a; font-size: 18px; font-weight: 700; }
      .subtitle { fill: #64748b; font-size: 11px; }
      .sec-title { fill: #475569; font-size: 11.5px; font-weight: 600; }
      .pass { fill: #22c55e; } .warn { fill: #f59e0b; }
      .skip { fill: #94a3b8; } .na { fill: #cbd5e1; }
      .footer-bg { fill: #1e293b; }
      .footer-text { fill: #e2e8f0; font-size: 11px; font-weight: 600; }
      .row-cpu   { fill: #f8fafc; }
      .row-simd  { fill: #fffbeb; }
      .row-gpu   { fill: #f0fdf4; }
      .row-ioctl { fill: #fef2f2; }
      .row-both  { fill: #f5f3ff; }
      .legend-cpu  { fill: #e2e8f0; stroke: #94a3b8; }
      .legend-simd { fill: #fef3c7; stroke: #d97706; }
      .legend-gpu  { fill: #dcfce7; stroke: #16a34a; }
      .legend-ioctl { fill: #fee2e2; stroke: #dc2626; }
      .legend-both { fill: #ede9fe; stroke: #7c3aed; }
    }
    text { font-family: -apple-system, "Segoe UI", Helvetica, sans-serif; }
  </style>
  <rect width="920" height="758" rx="10" class="bg"/>
  <text x="24" y="28" class="title">go-pherence Test Matrix</text>
  <text x="24" y="44" class="subtitle">Pure Go + PTX · RTX 3060 12GB · 7 packages · 67 tests · 10 kernels</text>
  <rect x="460" y="20" width="10" height="10" rx="2" class="legend-cpu" stroke-width="1.5"/><text x="474" y="29" class="note">CPU scalar</text>
  <rect x="535" y="20" width="10" height="10" rx="2" class="legend-simd" stroke-width="1.5"/><text x="549" y="29" class="note">CPU SIMD (AVX2/NEON)</text>
  <rect x="665" y="20" width="10" height="10" rx="2" class="legend-gpu" stroke-width="1.5"/><text x="679" y="29" class="note">GPU PTX (purego)</text>
  <rect x="773" y="20" width="10" height="10" rx="2" class="legend-ioctl" stroke-width="1.5"/><text x="787" y="29" class="note">GPU NV ioctl</text>
  <rect x="859" y="20" width="10" height="10" rx="2" class="legend-both" stroke-width="1.5"/><text x="873" y="29" class="note">CPU + GPU (DevBuf)</text>
  <g transform="translate(460,38)"><circle cx="0" cy="0" r="4" class="pass"/><text x="8" y="4" class="note">Pass</text><circle cx="65" cy="0" r="4" class="warn"/><text x="73" y="4" class="note">Partial</text><circle cx="130" cy="0" r="4" class="na"/><text x="138" y="4" class="note">N/A</text></g>
  <rect x="0" y="56" width="920" height="26" rx="0" class="hdr-bg"/>
  <text x="24" y="73" class="hdr-text">Component</text><text x="230" y="73" class="hdr-text">CPU</text><text x="310" y="73" class="hdr-text">GPU (purego)</text><text x="440" y="73" class="hdr-text">GPU (NV ioctl)</text><text x="555" y="73" class="hdr-text">Tests</text><text x="610" y="73" class="hdr-text">Performance</text><text x="800" y="73" class="hdr-text">Notes</text>
  <rect x="8" y="86" width="904" height="20" rx="3" class="sec-bg"/>
  <text x="16" y="100" class="sec-title">Core Framework (tensor/) — CPU scalar</text>
  <rect x="8" y="106" width="904" height="22" rx="2" class="row-cpu"/>
  <text x="24" y="121" class="cell">Tensor DAG + Realize</text><circle cx="246" cy="117" r="5" class="pass"/><circle cx="350" cy="117" r="5" class="na"/><circle cx="480" cy="117" r="5" class="na"/><text x="555" y="121" class="perf">48</text><text x="610" y="121" class="perf">—</text><text x="800" y="121" class="note">Lazy eval</text>
  <rect x="8" y="128" width="904" height="22" rx="2" class="row-cpu"/>
  <text x="24" y="143" class="cell">Elementwise Fusion</text><circle cx="246" cy="139" r="5" class="pass"/><circle cx="350" cy="139" r="5" class="na"/><circle cx="480" cy="139" r="5" class="na"/><text x="555" y="143" class="perf">✓</text><text x="610" y="143" class="perf">2× chained ops</text><text x="800" y="143" class="note">Fuse engine</text>
  <rect x="8" y="150" width="904" height="22" rx="2" class="row-cpu"/>
  <text x="24" y="165" class="cell">Pattern Rewrite (16 rules)</text><circle cx="246" cy="161" r="5" class="pass"/><circle cx="350" cy="161" r="5" class="na"/><circle cx="480" cy="161" r="5" class="na"/><text x="555" y="165" class="perf">✓</text><text x="610" y="165" class="perf">const fold</text><text x="800" y="165" class="note">tinygrad-style</text>
  <rect x="8" y="172" width="904" height="22" rx="2" class="row-cpu"/>
  <text x="24" y="187" class="cell">NumPy Reference Tests</text><circle cx="246" cy="183" r="5" class="pass"/><circle cx="350" cy="183" r="5" class="na"/><circle cx="480" cy="183" r="5" class="na"/><text x="555" y="187" class="perf">20</text><text x="610" y="187" class="perf">&amp;lt;1e-5 diff</text><text x="800" y="187" class="note">Ground truth</text>
  <rect x="8" y="198" width="904" height="20" rx="3" class="sec-bg"/>
  <text x="16" y="212" class="sec-title">Safetensors (safetensors/) — CPU</text>
  <rect x="8" y="218" width="904" height="22" rx="2" class="row-cpu"/>
  <text x="24" y="233" class="cell">F16/BF16/F32 + Sharded</text><circle cx="246" cy="229" r="5" class="pass"/><circle cx="350" cy="229" r="5" class="na"/><circle cx="480" cy="229" r="5" class="na"/><text x="555" y="233" class="perf">3</text><text x="610" y="233" class="perf">HuggingFace</text><text x="800" y="233" class="note">Up to 15GB</text>
  <rect x="8" y="240" width="904" height="22" rx="2" class="row-simd"/>
  <text x="24" y="255" class="cell">GPTQ INT4 Dequantization</text><circle cx="246" cy="251" r="5" class="pass"/><circle cx="350" cy="251" r="5" class="na"/><circle cx="480" cy="251" r="5" class="na"/><text x="555" y="255" class="perf">✓</text><text x="610" y="255" class="perf">∥ 30s→14s</text><text x="800" y="255" class="note">AutoRound</text>
  <rect x="8" y="266" width="904" height="20" rx="3" class="sec-bg"/>
  <text x="16" y="280" class="sec-title">Model Inference (model/) — CPU SIMD + GPU</text>
  <rect x="8" y="286" width="904" height="22" rx="2" class="row-simd"/>
  <text x="24" y="301" class="cell">BERT Encoder (GTE-small)</text><circle cx="246" cy="297" r="5" class="pass"/><circle cx="350" cy="297" r="5" class="na"/><circle cx="480" cy="297" r="5" class="na"/><text x="555" y="301" class="perf">6</text><text x="610" y="301" class="perf">10.8ms, 0 alloc</text><text x="800" y="301" class="note">AVX2 SGEMM</text>
  <rect x="8" y="308" width="904" height="22" rx="2" class="row-both"/>
  <text x="24" y="323" class="cell">LLaMA (SmolLM2-135M)</text><circle cx="246" cy="319" r="5" class="pass"/><circle cx="350" cy="319" r="5" class="warn"/><circle cx="480" cy="319" r="5" class="na"/><text x="555" y="323" class="perf">✓</text><text x="610" y="323" class="perf">CPU 35 GPU 50ms</text><text x="800" y="323" class="note">h=576</text>
  <rect x="8" y="330" width="904" height="22" rx="2" class="row-both"/>
  <text x="24" y="345" class="cell">LLaMA (Qwen2.5-7B INT4)</text><circle cx="246" cy="341" r="5" class="pass"/><circle cx="350" cy="341" r="5" class="pass"/><circle cx="480" cy="341" r="5" class="na"/><text x="555" y="345" class="perf">✓</text><text x="610" y="345" class="perf">CPU 1005 GPU 518ms</text><text x="800" y="345" class="note">1.9× speedup</text>
  <rect x="8" y="352" width="904" height="22" rx="2" class="row-cpu"/>
  <text x="24" y="367" class="cell">BPE Tokenizer</text><circle cx="246" cy="363" r="5" class="pass"/><circle cx="350" cy="363" r="5" class="na"/><circle cx="480" cy="363" r="5" class="na"/><text x="555" y="367" class="perf">✓</text><text x="610" y="367" class="perf">GPT-2 + Qwen</text><text x="800" y="367" class="note">Str + array</text>
  <rect x="8" y="378" width="904" height="20" rx="3" class="sec-bg"/>
  <text x="16" y="392" class="sec-title">GPU Compute (gpu/) — 10 PTX kernels + purego CUDA</text>
  <rect x="8" y="398" width="904" height="22" rx="2" class="row-gpu"/>
  <text x="24" y="413" class="cell">SGEMM (16×16 tiled PTX)</text><circle cx="246" cy="409" r="5" class="pass"/><circle cx="350" cy="409" r="5" class="pass"/><circle cx="480" cy="409" r="5" class="na"/><text x="555" y="413" class="perf">1</text><text x="610" y="413" class="perf">348 GFLOPS</text><text x="800" y="413" class="note">Shared mem</text>
  <rect x="8" y="420" width="904" height="22" rx="2" class="row-gpu"/>
  <text x="24" y="435" class="cell">INT4 Fused Dequant+GEMV</text><circle cx="246" cy="431" r="5" class="pass"/><circle cx="350" cy="431" r="5" class="pass"/><circle cx="480" cy="431" r="5" class="na"/><text x="555" y="435" class="perf">✓</text><text x="610" y="435" class="perf">197µs 3584²</text><text x="800" y="435" class="note">8× unroll</text>
  <rect x="8" y="442" width="904" height="22" rx="2" class="row-both"/>
  <text x="24" y="457" class="cell">vec_add / vec_mul / vec_scale</text><circle cx="246" cy="453" r="5" class="pass"/><circle cx="350" cy="453" r="5" class="pass"/><circle cx="480" cy="453" r="5" class="na"/><text x="555" y="457" class="perf">4</text><text x="610" y="457" class="perf">Thresh ≥2048</text><text x="800" y="457" class="note">Auto fallback</text>
  <rect x="8" y="464" width="904" height="22" rx="2" class="row-both"/>
  <text x="24" y="479" class="cell">vec_silu (SiLU activation)</text><circle cx="246" cy="475" r="5" class="pass"/><circle cx="350" cy="475" r="5" class="pass"/><circle cx="480" cy="475" r="5" class="na"/><text x="555" y="479" class="perf">✓</text><text x="610" y="479" class="perf">exp2 approx</text><text x="800" y="479" class="note">x·σ(x)</text>
  <rect x="8" y="486" width="904" height="22" rx="2" class="row-both"/>
  <text x="24" y="501" class="cell">rms_norm (shared mem reduce)</text><circle cx="246" cy="497" r="5" class="pass"/><circle cx="350" cy="497" r="5" class="pass"/><circle cx="480" cy="497" r="5" class="na"/><text x="555" y="501" class="perf">✓</text><text x="610" y="501" class="perf">256-thread</text><text x="800" y="501" class="note">rsqrt approx</text>
  <rect x="8" y="508" width="904" height="22" rx="2" class="row-gpu"/>
  <text x="24" y="523" class="cell">RoPE (cos/sin approx PTX)</text><circle cx="246" cy="519" r="5" class="pass"/><circle cx="350" cy="519" r="5" class="pass"/><circle cx="480" cy="519" r="5" class="na"/><text x="555" y="523" class="perf">✓</text><text x="610" y="523" class="perf">cos.approx</text><text x="800" y="523" class="note">In-place rotate</text>
  <rect x="8" y="530" width="904" height="22" rx="2" class="row-gpu"/>
  <text x="24" y="545" class="cell">GQA Attention (per-head PTX)</text><circle cx="246" cy="541" r="5" class="pass"/><circle cx="350" cy="541" r="5" class="pass"/><circle cx="480" cy="541" r="5" class="na"/><text x="555" y="545" class="perf">✓</text><text x="610" y="545" class="perf">softmax+V weight</text><text x="800" y="545" class="note">Shared scores[]</text>
  <rect x="8" y="552" width="904" height="22" rx="2" class="row-both"/>
  <text x="24" y="567" class="cell">DevBuf (CPU↔GPU dispatch)</text><circle cx="246" cy="563" r="5" class="pass"/><circle cx="350" cy="563" r="5" class="pass"/><circle cx="480" cy="563" r="5" class="na"/><text x="555" y="567" class="perf">4</text><text x="610" y="567" class="perf">Lazy, MarkDirty</text><text x="800" y="567" class="note">tinygrad</text>
  <rect x="8" y="578" width="904" height="20" rx="3" class="sec-bg"/>
  <text x="16" y="592" class="sec-title">NV Direct ioctl (gpu/) — zero dependencies</text>
  <rect x="8" y="598" width="904" height="22" rx="2" class="row-ioctl"/>
  <text x="24" y="613" class="cell">Device discovery + UUID</text><circle cx="246" cy="609" r="5" class="na"/><circle cx="350" cy="609" r="5" class="na"/><circle cx="480" cy="609" r="5" class="pass"/><text x="555" y="613" class="perf">1</text><text x="610" y="613" class="perf">RTX 3060</text><text x="800" y="613" class="note">Raw syscall</text>
  <rect x="8" y="620" width="904" height="22" rx="2" class="row-ioctl"/>
  <text x="24" y="635" class="cell">GPU caps (84 SMs, sm_86)</text><circle cx="246" cy="631" r="5" class="na"/><circle cx="350" cy="631" r="5" class="na"/><circle cx="480" cy="631" r="5" class="pass"/><text x="555" y="635" class="perf">1</text><text x="610" y="635" class="perf">7×6×2 SM</text><text x="800" y="635" class="note">RM control</text>
  <rect x="8" y="642" width="904" height="22" rx="2" class="row-ioctl"/>
  <text x="24" y="657" class="cell">Channel group + Ctx share</text><circle cx="246" cy="653" r="5" class="na"/><circle cx="350" cy="653" r="5" class="na"/><circle cx="480" cy="653" r="5" class="pass"/><text x="555" y="657" class="perf">1</text><text x="610" y="657" class="perf">KEPLER+FERMI</text><text x="800" y="657" class="note">Compute path</text>
  <rect x="8" y="664" width="904" height="22" rx="2" class="row-ioctl"/>
  <text x="24" y="679" class="cell">Host memory registration</text><circle cx="246" cy="675" r="5" class="na"/><circle cx="350" cy="675" r="5" class="na"/><circle cx="480" cy="675" r="5" class="pass"/><text x="555" y="679" class="perf">1</text><text x="610" y="679" class="perf">NVOS02 + mmap</text><text x="800" y="679" class="note">CPU r/w</text>
  <rect x="8" y="686" width="904" height="22" rx="2" class="row-ioctl"/>
  <text x="24" y="701" class="cell">VA space + UVM</text><circle cx="246" cy="697" r="5" class="na"/><circle cx="350" cy="697" r="5" class="na"/><circle cx="480" cy="697" r="5" class="warn"/><text x="555" y="701" class="perf">—</text><text x="610" y="701" class="perf">FERMI_VASPACE</text><text x="800" y="701" class="note">No page fault</text>
  <rect x="8" y="716" width="904" height="28" rx="6" class="footer-bg"/>
  <text x="24" y="734" class="footer-text">67 tests · 7.2K lines Go · 10 PTX kernels · tensor 72% · model 61% · gpu 23% · 7B GPU 518ms (1.9×) · 135M CPU 36ms (28 tok/s)</text>
</svg>
