<svg xmlns="http://www.w3.org/2000/svg" viewBox="0 0 920 656" font-family="system-ui,-apple-system,sans-serif">
  <style>
    @media (prefers-color-scheme: dark) {
      .bg { fill: #0f1218; } .hdr-bg { fill: #1e293b; } .sec-bg { fill: #1a1e28; }
      .hdr { fill: #e2e8f0; } .cell { fill: #cbd5e1; } .note { fill: #64748b; }
      .perf { fill: #86efac; } .title { fill: #f1f5f9; } .sub { fill: #64748b; }
      .pass { fill: #22c55e; } .fail { fill: #ef4444; } .warn { fill: #f59e0b; }
      .skip { fill: #475569; } .na { fill: #334155; }
      .footer { fill: #1e293b; } .footer-text { fill: #94a3b8; }
    }
    @media (prefers-color-scheme: light) {
      .bg { fill: #f8fafc; } .hdr-bg { fill: #334155; } .sec-bg { fill: #e2e8f0; }
      .hdr { fill: #ffffff; } .cell { fill: #1e293b; } .note { fill: #64748b; }
      .perf { fill: #15803d; } .title { fill: #0f172a; } .sub { fill: #64748b; }
      .pass { fill: #22c55e; } .fail { fill: #ef4444; } .warn { fill: #f59e0b; }
      .skip { fill: #94a3b8; } .na { fill: #cbd5e1; }
      .footer { fill: #1e293b; } .footer-text { fill: #e2e8f0; }
    }
    text { font-family: -apple-system, "Segoe UI", Helvetica, sans-serif; }
    .title { font-size: 18px; font-weight: 700; }
    .sub { font-size: 11px; }
    .hdr { font-size: 11px; font-weight: 600; }
    .cell { font-size: 10.5px; }
    .note { font-size: 9.5px; }
    .perf { font-size: 10px; font-family: "SF Mono", Menlo, monospace; }
    .sec { font-size: 12px; font-weight: 600; }
    .footer-text { font-size: 11px; font-weight: 600; }
  </style>
  <rect width="920" height="656" rx="10" class="bg"/>
  <text x="24" y="30" class="title">go-tinygrad Test Matrix</text>
  <text x="24" y="46" class="sub">Pure Go + PTX · RTX 3060 12GB · 7 packages · 66 tests · 25+ commits</text>
  <g transform="translate(620,24)"><circle cx="0" cy="0" r="5" class="pass"/><text x="10" y="4" class="cell">Pass</text><circle cx="70" cy="0" r="5" class="warn"/><text x="80" y="4" class="cell">Partial</text><circle cx="140" cy="0" r="5" class="skip"/><text x="150" y="4" class="cell">Skip</text><circle cx="210" cy="0" r="5" class="na"/><text x="220" y="4" class="cell">N/A</text></g>
  <rect x="0" y="58" width="920" height="24" class="hdr-bg"/>
  <text x="24" y="74" class="hdr">Component</text><text x="220" y="74" class="hdr">CPU</text><text x="300" y="74" class="hdr">GPU (purego)</text><text x="420" y="74" class="hdr">GPU (NV ioctl)</text><text x="555" y="74" class="hdr">Tests</text><text x="610" y="74" class="hdr">Performance</text><text x="800" y="74" class="hdr">Notes</text>
  <rect x="8" y="86" width="904" height="18" rx="3" class="sec-bg"/>
  <text x="16" y="99" class="sec cell">Core Framework (tensor/)</text>
  <text x="24" y="118" class="cell">Tensor DAG + Realize</text><circle cx="240" cy="114" r="6" class="pass"/><circle cx="340" cy="114" r="6" class="na"/><circle cx="460" cy="114" r="6" class="na"/><text x="555" y="118" class="perf">48</text><text x="610" y="118" class="perf">—</text><text x="800" y="118" class="note">Lazy eval</text>
  <text x="24" y="138" class="cell">Elementwise Fusion</text><circle cx="240" cy="134" r="6" class="pass"/><circle cx="340" cy="134" r="6" class="na"/><circle cx="460" cy="134" r="6" class="na"/><text x="555" y="138" class="perf">✓</text><text x="610" y="138" class="perf">2× chained ops</text><text x="800" y="138" class="note">Fuse engine</text>
  <text x="24" y="158" class="cell">Pattern Rewrite (16 rules)</text><circle cx="240" cy="154" r="6" class="pass"/><circle cx="340" cy="154" r="6" class="na"/><circle cx="460" cy="154" r="6" class="na"/><text x="555" y="158" class="perf">✓</text><text x="610" y="158" class="perf">const fold</text><text x="800" y="158" class="note">tinygrad-style</text>
  <text x="24" y="178" class="cell">NumPy Reference Tests</text><circle cx="240" cy="174" r="6" class="pass"/><circle cx="340" cy="174" r="6" class="na"/><circle cx="460" cy="174" r="6" class="na"/><text x="555" y="178" class="perf">20</text><text x="610" y="178" class="perf"><1e-5 diff</text><text x="800" y="178" class="note">Ground truth</text>
  <rect x="8" y="188" width="904" height="18" rx="3" class="sec-bg"/>
  <text x="16" y="201" class="sec cell">Safetensors (safetensors/)</text>
  <text x="24" y="220" class="cell">F16/BF16/F32 + Sharded</text><circle cx="240" cy="216" r="6" class="pass"/><circle cx="340" cy="216" r="6" class="na"/><circle cx="460" cy="216" r="6" class="na"/><text x="555" y="220" class="perf">3</text><text x="610" y="220" class="perf">HuggingFace</text><text x="800" y="220" class="note">Up to 15GB</text>
  <text x="24" y="240" class="cell">GPTQ INT4 Dequantization</text><circle cx="240" cy="236" r="6" class="pass"/><circle cx="340" cy="236" r="6" class="na"/><circle cx="460" cy="236" r="6" class="na"/><text x="555" y="240" class="perf">✓</text><text x="610" y="240" class="perf">∥ 30s→14s</text><text x="800" y="240" class="note">AutoRound</text>
  <rect x="8" y="250" width="904" height="18" rx="3" class="sec-bg"/>
  <text x="16" y="263" class="sec cell">Model Inference (model/)</text>
  <text x="24" y="282" class="cell">BERT Encoder (GTE-small)</text><circle cx="240" cy="278" r="6" class="pass"/><circle cx="340" cy="278" r="6" class="na"/><circle cx="460" cy="278" r="6" class="na"/><text x="555" y="282" class="perf">6</text><text x="610" y="282" class="perf">10.8ms, 0 alloc</text><text x="800" y="282" class="note">gte-go parity</text>
  <text x="24" y="302" class="cell">LLaMA (SmolLM2-135M)</text><circle cx="240" cy="298" r="6" class="pass"/><circle cx="340" cy="298" r="6" class="warn"/><circle cx="460" cy="298" r="6" class="na"/><text x="555" y="302" class="perf">✓</text><text x="610" y="302" class="perf">CPU 35 GPU 50ms</text><text x="800" y="302" class="note">h=576</text>
  <text x="24" y="322" class="cell">LLaMA (Qwen2.5-7B INT4)</text><circle cx="240" cy="318" r="6" class="pass"/><circle cx="340" cy="318" r="6" class="warn"/><circle cx="460" cy="318" r="6" class="na"/><text x="555" y="322" class="perf">✓</text><text x="610" y="322" class="perf">CPU 1009ms/tok</text><text x="800" y="322" class="note">GPTQ 5GB</text>
  <text x="24" y="342" class="cell">BPE Tokenizer</text><circle cx="240" cy="338" r="6" class="pass"/><circle cx="340" cy="338" r="6" class="na"/><circle cx="460" cy="338" r="6" class="na"/><text x="555" y="342" class="perf">✓</text><text x="610" y="342" class="perf">GPT-2 + Qwen</text><text x="800" y="342" class="note">Str + array</text>
  <rect x="8" y="352" width="904" height="18" rx="3" class="sec-bg"/>
  <text x="16" y="365" class="sec cell">GPU Compute (gpu/)</text>
  <text x="24" y="384" class="cell">SGEMM (16×16 tiled PTX)</text><circle cx="240" cy="380" r="6" class="pass"/><circle cx="340" cy="380" r="6" class="pass"/><circle cx="460" cy="380" r="6" class="na"/><text x="555" y="384" class="perf">4</text><text x="610" y="384" class="perf">348 GFLOPS</text><text x="800" y="384" class="note">Shared mem</text>
  <text x="24" y="404" class="cell">INT4 Fused Dequant+GEMV</text><circle cx="240" cy="400" r="6" class="pass"/><circle cx="340" cy="400" r="6" class="pass"/><circle cx="460" cy="400" r="6" class="na"/><text x="555" y="404" class="perf">✓</text><text x="610" y="404" class="perf">197µs 3584²</text><text x="800" y="404" class="note">8× unroll</text>
  <text x="24" y="424" class="cell">vec_add / vec_mul / vec_scale</text><circle cx="240" cy="420" r="6" class="pass"/><circle cx="340" cy="420" r="6" class="pass"/><circle cx="460" cy="420" r="6" class="na"/><text x="555" y="424" class="perf">4</text><text x="610" y="424" class="perf">Thresh ≥2048</text><text x="800" y="424" class="note">Auto fallback</text>
  <text x="24" y="444" class="cell">vec_silu (SiLU activation)</text><circle cx="240" cy="440" r="6" class="pass"/><circle cx="340" cy="440" r="6" class="pass"/><circle cx="460" cy="440" r="6" class="na"/><text x="555" y="444" class="perf">✓</text><text x="610" y="444" class="perf">exp2 approx</text><text x="800" y="444" class="note">x·σ(x)</text>
  <text x="24" y="464" class="cell">rms_norm (shared mem reduce)</text><circle cx="240" cy="460" r="6" class="pass"/><circle cx="340" cy="460" r="6" class="pass"/><circle cx="460" cy="460" r="6" class="na"/><text x="555" y="464" class="perf">✓</text><text x="610" y="464" class="perf">256-thread</text><text x="800" y="464" class="note">rsqrt approx</text>
  <text x="24" y="484" class="cell">DevBuf (CPU↔GPU)</text><circle cx="240" cy="480" r="6" class="pass"/><circle cx="340" cy="480" r="6" class="pass"/><circle cx="460" cy="480" r="6" class="na"/><text x="555" y="484" class="perf">4</text><text x="610" y="484" class="perf">Lazy, MarkDirty</text><text x="800" y="484" class="note">tinygrad</text>
  <rect x="8" y="494" width="904" height="18" rx="3" class="sec-bg"/>
  <text x="16" y="507" class="sec cell">NV Direct ioctl (gpu/ — zero deps)</text>
  <text x="24" y="526" class="cell">Device discovery + UUID</text><circle cx="240" cy="522" r="6" class="na"/><circle cx="340" cy="522" r="6" class="na"/><circle cx="460" cy="522" r="6" class="pass"/><text x="555" y="526" class="perf">1</text><text x="610" y="526" class="perf">RTX 3060</text><text x="800" y="526" class="note">Raw syscall</text>
  <text x="24" y="546" class="cell">GPU caps (84 SMs, sm_86)</text><circle cx="240" cy="542" r="6" class="na"/><circle cx="340" cy="542" r="6" class="na"/><circle cx="460" cy="542" r="6" class="pass"/><text x="555" y="546" class="perf">1</text><text x="610" y="546" class="perf">7×6×2 SM</text><text x="800" y="546" class="note">RM control</text>
  <text x="24" y="566" class="cell">Channel group + Ctx share</text><circle cx="240" cy="562" r="6" class="na"/><circle cx="340" cy="562" r="6" class="na"/><circle cx="460" cy="562" r="6" class="pass"/><text x="555" y="566" class="perf">1</text><text x="610" y="566" class="perf">KEPLER+FERMI</text><text x="800" y="566" class="note">Compute path</text>
  <text x="24" y="586" class="cell">Host memory registration</text><circle cx="240" cy="582" r="6" class="na"/><circle cx="340" cy="582" r="6" class="na"/><circle cx="460" cy="582" r="6" class="pass"/><text x="555" y="586" class="perf">1</text><text x="610" y="586" class="perf">NVOS02 + mmap</text><text x="800" y="586" class="note">CPU r/w</text>
  <text x="24" y="606" class="cell">VA space + UVM</text><circle cx="240" cy="602" r="6" class="na"/><circle cx="340" cy="602" r="6" class="na"/><circle cx="460" cy="602" r="6" class="warn"/><text x="555" y="606" class="perf">—</text><text x="610" y="606" class="perf">FERMI_VASPACE</text><text x="800" y="606" class="note">No page fault</text>
  <rect x="8" y="620" width="904" height="28" rx="6" class="footer"/>
  <text x="24" y="638" class="footer-text">66 tests · 7.0K lines Go · 8 PTX kernels · 2 GPU paths · RTX 3060 @ 348 GFLOPS · Qwen2.5-7B @ 1 tok/s · SmolLM2-135M @ 28 tok/s</text>
</svg>
